<svg xmlns="http://www.w3.org/2000/svg" width="400" height="388.643" viewBox="0 0 400 388.643">
    <defs>
        <linearGradient id="3z0hn5shqa" x1=".474" y1=".1" x2=".917" y2=".389" gradientUnits="objectBoundingBox">
            <stop offset="0" stop-color="#fff" stop-opacity=".051"/>
            <stop offset=".517" stop-color="#fff" stop-opacity=".502"/>
            <stop offset="1" stop-color="#fff" stop-opacity=".051"/>
        </linearGradient>
        <linearGradient id="3kvdjnelkb" x2="1" y2="1" gradientUnits="objectBoundingBox">
            <stop offset="0" stop-color="#fff" stop-opacity=".102"/>
            <stop offset=".512" stop-color="#fff" stop-opacity=".502"/>
            <stop offset="1" stop-color="#fff" stop-opacity=".102"/>
        </linearGradient>
    </defs>
    <g data-name="그룹 6593" transform="rotate(-165.02 160.238 173.273)">
        <rect width="121.845" height="179.32" rx="12" style="fill:#090909"/>
        <rect data-name="card" width="121.845" height="179.32" rx="12" style="opacity:.35;fill:url(#3z0hn5shqa)"/>
        <path data-name="제외 1" d="M109.846 179.32H12a12 12 0 0 1-12-12V12A12 12 0 0 1 12 0h97.845a12 12 0 0 1 12 12v155.319a12 12 0 0 1-12 12zM11.575.574a11 11 0 0 0-11 11v156.17a11 11 0 0 0 11 11h98.7a11 11 0 0 0 11-11V11.575a11 11 0 0 0-11-11z" style="fill:url(#3kvdjnelkb)"/>
    </g>
    <g data-name="그룹 6594" transform="rotate(150 157.536 190.638)">
        <rect data-name="card" width="121.845" height="179.32" rx="12" style="fill:#090909"/>
        <rect data-name="card" width="121.845" height="179.32" rx="12" style="opacity:.35;fill:url(#3z0hn5shqa)"/>
        <path data-name="제외 1" d="M109.846 179.32H12a12 12 0 0 1-12-12V12A12 12 0 0 1 12 0h97.845a12 12 0 0 1 12 12v155.319a12 12 0 0 1-12 12zM11.575.574a11 11 0 0 0-11 11v156.17a11 11 0 0 0 11 11h98.7a11 11 0 0 0 11-11V11.575a11 11 0 0 0-11-11z" style="fill:url(#3kvdjnelkb)"/>
    </g>
    <g data-name="그룹 6595" transform="rotate(105.01 154.39 212.86)">
        <rect data-name="card" width="121.845" height="179.32" rx="12" style="fill:#090909"/>
        <rect data-name="card" width="121.845" height="179.32" rx="12" style="opacity:.35;fill:url(#3z0hn5shqa)"/>
        <path data-name="제외 1" d="M109.846 179.32H12a12 12 0 0 1-12-12V12A12 12 0 0 1 12 0h97.845a12 12 0 0 1 12 12v155.319a12 12 0 0 1-12 12zM11.575.574a11 11 0 0 0-11 11v156.17a11 11 0 0 0 11 11h98.7a11 11 0 0 0 11-11V11.575a11 11 0 0 0-11-11z" style="fill:url(#3kvdjnelkb)"/>
    </g>
    <g data-name="그룹 6592" transform="rotate(-135 161.79 160.646)">
        <rect data-name="card" width="121.845" height="179.32" rx="12" style="fill:#090909"/>
        <rect data-name="card" width="121.845" height="179.32" rx="12" style="opacity:.35;fill:url(#3z0hn5shqa)"/>
        <path data-name="제외 1" d="M109.846 179.32H12a12 12 0 0 1-12-12V12A12 12 0 0 1 12 0h97.845a12 12 0 0 1 12 12v155.319a12 12 0 0 1-12 12zM11.575.574a11 11 0 0 0-11 11v156.17a11 11 0 0 0 11 11h98.7a11 11 0 0 0 11-11V11.575a11 11 0 0 0-11-11z" style="fill:url(#3kvdjnelkb)"/>
    </g>
    <g data-name="그룹 6591" transform="rotate(-90 165.872 134.685)">
        <rect data-name="card" width="121.845" height="179.32" rx="12" style="fill:#090909"/>
        <rect data-name="card" width="121.845" height="179.32" rx="12" style="opacity:.35;fill:url(#3z0hn5shqa)"/>
        <path data-name="제외 1" d="M109.846 179.32H12a12 12 0 0 1-12-12V12A12 12 0 0 1 12 0h97.845a12 12 0 0 1 12 12v155.319a12 12 0 0 1-12 12zM11.575.574a11 11 0 0 0-11 11v156.17a11 11 0 0 0 11 11h98.7a11 11 0 0 0 11-11V11.575a11 11 0 0 0-11-11z" style="fill:url(#3kvdjnelkb)"/>
    </g>
    <g data-name="그룹 6590" transform="rotate(-45 175.238 72.586)">
        <rect data-name="card" width="121.845" height="179.32" rx="12" style="fill:#090909"/>
        <rect data-name="card" width="121.845" height="179.32" rx="12" style="opacity:.35;fill:url(#3z0hn5shqa)"/>
        <path data-name="제외 1" d="M109.846 179.32H12a12 12 0 0 1-12-12V12A12 12 0 0 1 12 0h97.845a12 12 0 0 1 12 12v155.319a12 12 0 0 1-12 12zM11.575.574a11 11 0 0 0-11 11v156.17a11 11 0 0 0 11 11h98.7a11 11 0 0 0 11-11V11.575a11 11 0 0 0-11-11z" style="fill:url(#3kvdjnelkb)"/>
    </g>
    <g data-name="그룹 6588" transform="translate(88.66 12.611)">
        <rect data-name="card" width="121.845" height="179.32" rx="12" style="fill:#090909"/>
        <rect data-name="card" width="121.845" height="179.32" rx="12" style="opacity:.35;fill:url(#3z0hn5shqa)"/>
        <path data-name="제외 1" d="M109.846 179.32H12a12 12 0 0 1-12-12V12A12 12 0 0 1 12 0h97.845a12 12 0 0 1 12 12v155.319a12 12 0 0 1-12 12zM11.575.574a11 11 0 0 0-11 11v156.17a11 11 0 0 0 11 11h98.7a11 11 0 0 0 11-11V11.575a11 11 0 0 0-11-11z" style="fill:url(#3kvdjnelkb)"/>
    </g>
    <g data-name="그룹 6596" transform="rotate(60 147.693 255.812)">
        <rect data-name="card" width="121.845" height="179.32" rx="12" style="fill:#090909"/>
        <rect data-name="card" width="121.845" height="179.32" rx="12" style="opacity:.35;fill:url(#3z0hn5shqa)"/>
        <path data-name="제외 1" d="M109.846 179.32H12a12 12 0 0 1-12-12V12A12 12 0 0 1 12 0h97.845a12 12 0 0 1 12 12v155.319a12 12 0 0 1-12 12zM11.575.574a11 11 0 0 0-11 11v156.17a11 11 0 0 0 11 11h98.7a11 11 0 0 0 11-11V11.575a11 11 0 0 0-11-11z" style="fill:url(#3kvdjnelkb)"/>
    </g>
</svg>
