<svg xmlns="http://www.w3.org/2000/svg" width="45" height="30" viewBox="0 0 45 30">
    <path style="fill:none" d="M0 0h45v30H0z"/>
    <path data-name="패스 1" d="M296.339 293.132a26.482 26.482 0 0 0-.418 1.477 2.228 2.228 0 0 1 1.146-1.451 5.948 5.948 0 0 1 4.716-2.3v-.017c-3.387-.973-4.438.141-4.732.665a11.539 11.539 0 0 0-.711 1.622" transform="translate(-295.65 -282.371)" style="fill:#2a72e5"/>
    <path data-name="패스 2" d="m299.849 287.927-.5.478c.573-.47 1.518-.361 2.973.345a6.322 6.322 0 0 1 1.187-1.522c-.69-.5-1.389-.941-1.833-.735a15.823 15.823 0 0 0-1.829 1.434" transform="translate(-295.65 -282.371)" style="fill:#2a72e5"/>
    <path data-name="패스 3" d="M306.811 284.006c-.517.19-1.206.444-1.718.653a6.243 6.243 0 0 1 .719.923 16.991 16.991 0 0 1 2.4-1.07c-.139-.578-.173-.867 0-.94-.423.129-.989.288-1.408.434" transform="translate(-295.65 -282.371)" style="fill:#2a72e5"/>
    <path data-name="패스 4" d="M315.21 282.426a82.31 82.31 0 0 0-2.62.254c-.41.1-.591.248-.794.866a29.713 29.713 0 0 1 3.236-.432 1.769 1.769 0 0 1 1.407-.743l-1.229.055" transform="translate(-295.65 -282.371)" style="fill:#2a72e5"/>
    <path data-name="패스 5" d="M323.951 282.9a81.457 81.457 0 0 0-2.457-.339 3.145 3.145 0 0 0-2.106.5 31.921 31.921 0 0 1 3.367.354 4.22 4.22 0 0 1 2.642-.231c-.434-.086-1.01-.212-1.446-.284" transform="translate(-295.65 -282.371)" style="fill:#2a72e5"/>
    <path data-name="패스 6" d="M331.838 285.392a55.084 55.084 0 0 0-1.829-.815 5.638 5.638 0 0 0-3.445-.281 20.953 20.953 0 0 1 2.633 1.012 6.424 6.424 0 0 1 4.3 1.006c-.495-.285-1.153-.671-1.662-.922" transform="translate(-295.65 -282.371)" style="fill:#2a72e5"/>
    <path data-name="패스 7" d="M339.664 293.59a12.508 12.508 0 0 0-1.511-2.974l-.39-.537a7.477 7.477 0 0 0-5.92-3.186 8.45 8.45 0 0 1 1.509 1.478c3.979.563 6.718 4.061 6.977 8.912a12.385 12.385 0 0 0-.665-3.693" transform="translate(-295.65 -282.371)" style="fill:#2a72e5"/>
    <path data-name="패스 8" d="M333.977 308.453a17.269 17.269 0 0 0 2.156-1.651c.254-.247.6-.573.839-.832 4.963-5.751 2.708-14.05-2.621-15.555a4.024 4.024 0 0 1 .092.8v.143a4.038 4.038 0 0 1-.093.784c5.7 2.573 5.141 12.841-.908 16.646l.535-.331" transform="translate(-295.65 -282.371)" style="fill:#2a72e5"/>
    <path data-name="패스 9" d="M326.523 311.477a65.39 65.39 0 0 0 2.464-.692c7.3-2.743 8.461-13.942 4.365-16.636a8.163 8.163 0 0 1-1.508 1.432c3.465 3.821-.086 14.616-6.589 16.166l1.268-.27" transform="translate(-295.65 -282.371)" style="fill:#2a72e5"/>
    <path data-name="패스 10" d="M318.031 312.371a83.579 83.579 0 0 0 2.294-.043c6.061-.626 10.375-11.757 8.874-15.24a20.117 20.117 0 0 1-2.633.936c-.014 4.452-6.007 14.4-10.305 14.288.531.019 1.239.058 1.77.059" transform="translate(-295.65 -282.371)" style="fill:#2a72e5"/>
    <path data-name="패스 11" d="M309.24 311.224c.677.163 1.582.372 2.263.511 2.529.186 8.9-8.4 11.249-12.938a31.9 31.9 0 0 1-3.376.255c-1.836 1.782-6.68 7.387-7.632 8.493-2.452 2.846-3.363 3.386-3.695 3.338l1.191.341" transform="translate(-295.65 -282.371)" style="fill:#2a72e5"/>
    <path data-name="패스 12" d="M301.852 308.009a20.3 20.3 0 0 0 2.292 1.328l.065.032c.136-.724 6.163-7.924 10.816-10.5a30.089 30.089 0 0 1-3.229-.526c-5.559 2.131-11.234 8.65-10.257 9.45l.313.216" transform="translate(-295.65 -282.371)" style="fill:#2a72e5"/>
    <path data-name="패스 13" d="M297.829 304.114c.263.354.618.824.9 1.16-1.252-1.908 4.027-6.849 9.49-8a17.631 17.631 0 0 1-2.4-1.139c-5.027.546-9.811 4.109-8.827 6.572.241.432.564 1.007.842 1.408" transform="translate(-295.65 -282.371)" style="fill:#2a72e5"/>
    <path data-name="패스 14" d="M295.652 297.126v.241c.022.418.057.974.1 1.389-.135-2.71 3.98-4.461 7.758-4.337a6.579 6.579 0 0 1-1.188-1.559c-3.194-.41-4.94.414-5.843 1.176a6.6 6.6 0 0 0-.828 3.09" transform="translate(-295.65 -282.371)" style="fill:#2a72e5"/>
</svg>
