<svg xmlns="http://www.w3.org/2000/svg" width="52" height="52" viewBox="0 0 52 52">
    <path d="M83.773 41.864 79.439 33.2A2.167 2.167 0 0 0 77.5 32h-39a2.167 2.167 0 0 0-1.939 1.2l-4.333 8.667a2.188 2.188 0 0 0-.228.97v36.83A4.333 4.333 0 0 0 36.333 84h43.334A4.333 4.333 0 0 0 84 79.667V42.833a2.188 2.188 0 0 0-.227-.969zm-43.935-5.53h36.324l2.167 4.333H37.671zm39.829 43.333H36.333V45h43.334zM68.2 62.967a2.167 2.167 0 0 1 0 3.066L59.533 74.7a2.167 2.167 0 0 1-3.066 0L47.8 66.033a2.168 2.168 0 1 1 3.066-3.066l4.967 4.97V51.5a2.167 2.167 0 0 1 4.333 0v16.437l4.967-4.97a2.167 2.167 0 0 1 3.066 0z" transform="translate(-32 -32)" style="fill:#666"/>
</svg>
